<svg width="2926" height="1915" xmlns="http://www.w3.org/2000/svg" xmlns:xlink="http://www.w3.org/1999/xlink" xml:space="preserve" overflow="hidden"><defs><clipPath id="clip0"><rect x="737" y="280" width="2926" height="1915"/></clipPath></defs><g clip-path="url(#clip0)" transform="translate(-737 -280)"><path d="M1011 332.801C1011 306.954 1031.95 286 1057.8 286L3442.2 286C3468.05 286 3489 306.954 3489 332.801L3489 1154.2C3489 1180.05 3468.05 1201 3442.2 1201L1057.8 1201C1031.95 1201 1011 1180.05 1011 1154.2Z" fill="#FFFFFF" fill-rule="evenodd"/><path d="M2697.9 924.706 326.788 924.706C295.006 924.706 269.149 898.849 269.149 867.063L269.149 57.6389C269.149 25.8566 295.006 0 326.788 0L2697.9 0C2729.68 0 2755.54 25.8566 2755.54 57.6389L2755.54 867.063C2755.54 898.849 2729.68 924.706 2697.9 924.706ZM326.788 6.87184C298.796 6.87184 276.021 29.6466 276.021 57.6389L276.021 867.063C276.021 895.057 298.796 917.834 326.788 917.834L2697.9 917.834C2725.89 917.834 2748.67 895.057 2748.67 867.063L2748.67 57.6389C2748.67 29.6466 2725.89 6.87184 2697.9 6.87184L326.788 6.87184Z" fill="#3F3D56" transform="matrix(1.00007 0 0 1 737.852 280)"/><path d="M0 1891.67 2924.09 1891.67 2924.09 1897.45-1.17439e-05 1897.45Z" fill="#E6E6E6" transform="matrix(1.00007 0 0 1 737.852 280)"/><path d="M0 1596.18 2924.09 1596.18 2924.09 1601.96-1.17439e-05 1601.96Z" fill="#E6E6E6" transform="matrix(1.00007 0 0 1 737.852 280)"/><path d="M1332.59 954.473C1334.69 980.86 1350.01 1001.17 1366.8 999.827 1383.59 998.488 1395.5 976.014 1393.39 949.617 1392.7 939.061 1389.48 928.825 1384.02 919.766L1373.71 808.073 1321.4 814.028 1337.12 923.505C1333.16 933.318 1331.6 943.937 1332.59 954.473Z" fill="#FFB6B6" transform="matrix(1.00007 0 0 1 737.852 280)"/><path d="M1270.1 433.384C1270.1 433.384 1319 407.498 1343.79 446.181 1368.59 484.864 1385.7 903.231 1385.7 903.231L1316.98 910.568 1303.95 615.757 1270.1 433.384Z" fill="#E6E6E6" transform="matrix(1.00007 0 0 1 737.852 280)"/><path d="M1168.6 1574.35 1208.42 1574.35 1227.36 1420.78 1168.6 1420.79 1168.6 1574.35Z" fill="#FFB6B6" transform="matrix(1.00007 0 0 1 737.852 280)"/><path d="M1305.01 1573.45 1305.01 1573.45C1306.25 1575.54 1306.9 1582.28 1306.9 1584.7L1306.9 1584.7C1306.9 1592.17 1300.85 1598.22 1293.39 1598.22L1170.09 1598.22C1165 1598.22 1160.88 1594.09 1160.88 1589L1160.88 1583.87C1160.88 1583.87 1154.78 1568.44 1167.33 1549.42 1167.33 1549.42 1182.94 1564.31 1206.26 1540.99L1213.14 1528.53 1262.92 1564.94 1290.51 1568.34C1296.55 1569.08 1301.9 1568.22 1305.01 1573.45L1305.01 1573.45Z" fill="#2F2E41" transform="matrix(1.00007 0 0 1 737.852 280)"/><path d="M1399 1567.76 1437.57 1557.9 1417.91 1404.43 1360.98 1418.98 1399 1567.76Z" fill="#FFB6B6" transform="matrix(1.00007 0 0 1 737.852 280)"/><path d="M1530.94 1533.13 1530.94 1533.13C1532.65 1534.84 1534.96 1541.21 1535.56 1543.56L1535.56 1543.56C1537.4 1550.79 1533.04 1558.15 1525.81 1560L1406.35 1590.52C1401.42 1591.78 1396.39 1588.8 1395.13 1583.87L1393.86 1578.89C1393.86 1578.89 1384.14 1565.45 1391.6 1543.92 1391.6 1543.92 1410.4 1554.48 1427.23 1526.12L1430.81 1512.34 1488.05 1535.3 1515.63 1531.76C1521.66 1530.98 1526.63 1528.83 1530.94 1533.13L1530.94 1533.13Z" fill="#2F2E41" transform="matrix(1.00007 0 0 1 737.852 280)"/><path d="M1135.67 400.371 1133.78 386.672 1156.21 331.876 1217.86 325.027 1231.17 403.474 1135.67 400.371Z" fill="#FFB6B6" transform="matrix(1.00007 0 0 1 737.852 280)"/><path d="M1135.67 400.371 1133.78 386.672 1156.21 331.876 1217.86 325.027 1231.17 403.474 1135.67 400.371Z" fill="#000000" fill-opacity="0.1" transform="matrix(1.00007 0 0 1 737.852 280)"/><path d="M1063.75 787.368 1036.35 862.712 1056.9 903.809 1159.64 1499.72 1227.95 1499.72 1214.44 972.304 1371.97 1499.72 1439.58 1499.72 1385.21 1143.54 1344.58 814.766 1319.93 799.538 1200.74 732.572 1063.75 787.368Z" fill="#2F2E41" transform="matrix(1.00007 0 0 1 737.852 280)"/><path d="M1238.41 838.739 1197.31 845.589 1142.52 715.448 1265.81 715.448 1238.41 838.739Z" fill="#E6E6E6" transform="matrix(1.00007 0 0 1 737.852 280)"/><path d="M1320.6 804.492 1238.41 838.739 1211.01 777.094 1197.31 845.589 1053.47 799.286 1074.02 715.448 1053.47 441.468 1126.01 393.111 1135.67 386.672 1224.71 393.522 1232.52 397.769 1286.35 427.769 1300.05 653.803 1320.6 804.492Z" fill="#2F2E41" transform="matrix(1.00007 0 0 1 737.852 280)"/><path d="M1232.52 397.769 1193.89 561.335 1126.01 393.111 1135.67 386.672 1224.71 393.522 1232.52 397.769Z" fill="#E6E6E6" transform="matrix(1.00007 0 0 1 737.852 280)"/><path d="M1166.49 386.672 1152.79 410.265 1166.49 418.129 1159.64 561.76 1187.04 599.007 1214.44 543.957 1193.89 418.129 1200.74 386.672 1166.49 386.672Z" fill="#2F2E41" transform="matrix(1.00007 0 0 1 737.852 280)"/><path d="M1252.11 307.903C1252.11 343.84 1222.97 372.973 1187.04 372.973 1151.1 372.973 1121.97 343.84 1121.97 307.903 1121.97 271.966 1151.1 242.833 1187.04 242.833 1222.97 242.833 1252.11 271.966 1252.11 307.903Z" fill="#FFB6B6" transform="matrix(1.00007 0 0 1 737.852 280)"/><path d="M1145.45 313.611 1159.51 319.747 1165.65 282.931C1165.65 282.931 1190.19 270.659 1208.6 276.795 1227.01 282.931 1257.69 276.795 1257.69 276.795 1257.69 276.795 1257.69 215.435 1214.74 215.435 1171.78 215.435 1128.83 221.571 1128.83 239.979 1128.83 258.387 1110.42 276.795 1110.42 276.795 1110.42 276.795 1085.88 313.611 1110.42 338.155 1134.97 362.699 1147.24 362.699 1147.24 362.699L1145.45 313.611Z" fill="#2F2E41" transform="matrix(1.00007 0 0 1 737.852 280)"/><path d="M1019.19 952.548C1018.48 979.009 1031.55 1000.83 1048.39 1001.28 1065.24 1001.73 1079.46 980.645 1080.17 954.174 1080.6 943.604 1078.49 933.085 1074.02 923.497L1075.63 811.341 1022.98 811.709 1026.99 922.236C1022 931.572 1019.33 941.966 1019.19 952.548Z" fill="#FFB6B6" transform="matrix(1.00007 0 0 1 737.852 280)"/><path d="M1084.33 427.641C1084.33 427.641 1039.81 413.942 1019.26 455.039 998.71 496.136 1026.11 913.955 1026.11 913.955L1095.22 913.955 1076.88 619.427 1084.33 427.641Z" fill="#E6E6E6" transform="matrix(1.00007 0 0 1 737.852 280)"/><path d="M2792.23 1206.04 2626.2 1155.21C2622.52 1154.09 2618.67 1153.68 2614.84 1154L1773.38 1225.62C1761.38 1226.64 1758.37 1242.82 1769.19 1248.09L1796.15 1261.22 1795.43 1261.22 1795.43 1889.83 1820.83 1889.83 1820.83 1273.25 1905.3 1314.4C1911.76 1317.55 1918.98 1318.84 1926.13 1318.11L1935.12 1317.21 1935.12 1889.83 1960.52 1889.83 1960.52 1314.64 2611.35 1248.9 2611.35 1889.83 2636.75 1889.83 2636.75 1246.33 2744.69 1235.43 2744.69 1889.83 2770.09 1889.83 2770.09 1232.87 2789.78 1230.88C2803.6 1229.48 2805.51 1210.1 2792.23 1206.04Z" fill="#3F3D56" transform="matrix(1.00007 0 0 1 737.852 280)"/><path d="M2017.66 1223.13C2033.54 1223.13 2268.47 1194.55 2268.47 1194.55L2303.39 1242.18 2058.93 1289.8 2017.66 1223.13Z" fill="#FFFFFF" transform="matrix(1.00007 0 0 1 737.852 280)"/><path d="M2275.51 1865.42 2234.69 1865.34 2215.54 1707.87 2275.78 1707.98 2275.51 1865.42Z" fill="#A0616A" transform="matrix(1.00007 0 0 1 737.852 280)"/><path d="M2135.66 1864.25 2135.66 1864.25C2134.39 1866.39 2133.71 1873.3 2133.7 1875.79L2133.7 1875.79C2133.69 1883.44 2139.88 1889.65 2147.53 1889.66L2273.94 1889.88C2279.16 1889.89 2283.39 1885.67 2283.4 1880.45L2283.41 1875.18C2283.41 1875.18 2289.69 1859.38 2276.85 1839.86 2276.85 1839.86 2260.83 1855.1 2236.96 1831.15L2229.93 1818.36 2178.83 1855.6 2150.53 1859.03C2144.34 1859.79 2138.86 1858.9 2135.66 1864.25L2135.66 1864.25Z" fill="#2F2E41" transform="matrix(1.00007 0 0 1 737.852 280)"/><path d="M2494.57 1792.19 2462.37 1816.48 2353.35 1703.83 2400.88 1667.98 2494.57 1792.19Z" fill="#A0616A" transform="matrix(1.00007 0 0 1 737.852 280)"/><path d="M2383.69 1874.69 2383.69 1874.69C2383.96 1877.14 2387.55 1882.98 2389.03 1884.95L2389.03 1884.95C2393.58 1890.98 2402.17 1892.19 2408.2 1887.63L2507.93 1812.4C2512.05 1809.3 2512.87 1803.44 2509.76 1799.32L2506.63 1795.17C2506.63 1795.17 2502.15 1778.97 2480.39 1771.25 2480.39 1771.25 2476.85 1792.82 2443.76 1788.18L2430.59 1782.3 2412.54 1842.13 2392.3 1861.71C2387.87 1865.99 2383.01 1868.57 2383.69 1874.69L2383.69 1874.69Z" fill="#2F2E41" transform="matrix(1.00007 0 0 1 737.852 280)"/><path d="M2409.27 978.343C2409.27 1015.98 2378.75 1046.5 2341.11 1046.5 2303.48 1046.5 2272.96 1015.98 2272.96 978.343 2272.96 940.704 2303.48 910.19 2341.11 910.19 2378.75 910.19 2409.27 940.704 2409.27 978.343Z" fill="#A0616A" transform="matrix(1.00007 0 0 1 737.852 280)"/><path d="M2402.85 1371.3C2402.85 1371.3 2151.92 1357.1 2137.71 1385.5 2123.51 1413.91 2214.5 1804.11 2214.5 1804.11L2295.68 1787.1 2256.08 1513.34C2256.08 1513.34 2465.47 1568.79 2493.88 1502.51 2522.29 1436.22 2514.11 1411.54 2514.11 1411.54L2402.85 1371.3Z" fill="#2F2E41" transform="matrix(1.00007 0 0 1 737.852 280)"/><path d="M2467.14 1323.62C2467.14 1323.62 2221.39 1376.3 2215.21 1407.45 2209.02 1438.6 2399.99 1790.83 2399.99 1790.83L2473.78 1752.95 2363.17 1499.42C2363.17 1499.42 2579.78 1497.51 2589.64 1426.07 2599.5 1354.63 2585.08 1332.99 2585.08 1332.99L2467.14 1323.62Z" fill="#2F2E41" transform="matrix(1.00007 0 0 1 737.852 280)"/><path d="M2495.17 1056.45 2377.11 1056.45 2296.32 1189.02C2296.32 1189.02 2277.38 1274.69 2296.32 1283.93 2315.26 1293.18 2315.26 1392.6 2315.26 1392.6L2514.11 1411.54C2514.11 1411.54 2542.52 1113.27 2533.05 1084.86 2523.58 1056.45 2495.17 1056.45 2495.17 1056.45Z" fill="#FF0000" transform="matrix(1.00007 0 0 1 737.852 280)"/><path d="M2308.16 1144.04 2296.32 1283.93 2163.19 1227.43 2131.41 1211.45C2125.19 1203.33 2117.11 1196.83 2107.86 1192.47 2084.85 1181.26 2060.42 1184.04 2053.28 1198.68 2046.15 1213.32 2059.01 1234.27 2082.02 1245.48 2091.15 1250.09 2101.25 1252.44 2111.48 1252.34L2204.45 1305.14 2204.56 1304.94 2204.97 1305.67 2350.77 1366.56 2384.31 1182.92 2308.16 1144.04Z" fill="#A0616A" transform="matrix(1.00007 0 0 1 737.852 280)"/><path d="M2293.95 987.799C2293.95 987.799 2222.93 997.269 2251.34 935.719 2251.34 935.719 2247.01 902.354 2268.11 900.098 2289.22 897.843 2317.62 859.966 2317.62 859.966 2317.62 859.966 2382.75 826.824 2416.47 859.966 2450.19 893.108 2549.62 1087.23 2549.62 1087.23L2483.33 1158.24C2483.33 1158.24 2443.49 1053.49 2397.13 1065.62 2350.77 1077.76 2308.16 1113.94 2308.16 1113.94 2308.16 1113.94 2261.11 1090.39 2282.26 1069.87 2303.42 1049.35 2293.95 987.799 2293.95 987.799Z" fill="#2F2E41" transform="matrix(1.00007 0 0 1 737.852 280)"/><path d="M2388.64 1091.96C2388.64 1091.96 2355.5 1049.35 2331.83 1082.49 2308.16 1115.63 2289.22 1158.24 2289.22 1158.24L2383.91 1191.39 2388.64 1091.96Z" fill="#FF0000" transform="matrix(1.00007 0 0 1 737.852 280)"/><path d="M2748.17 1880.41 2638.16 1530.73 2638.17 1530.73 2638.43 1530.73 2637.98 1530.16 2637.97 1530.15 2630.14 1505.24 2630.14 1505.24C2642.08 1494.95 2650.21 1480.25 2651.83 1463.33L2601.54 1186.74C2605 1150.42 2577.15 1118.68 2540.68 1117.37L2427.21 1117.09C2394.95 1115.95 2367.02 1139.25 2362.32 1171.19L2359.81 1188.14 2325.04 1424.63C2323.77 1433.14 2324.28 1441.52 2326.28 1449.36L2301.27 1452.63 2293.68 1453.65 2263.68 1457.55 2263.58 1457.58 2259.83 1458.06 2255.77 1458.06 2255.77 1559.65 2256.02 1559.65 2256.02 1884.37C2256.02 1886.47 2257.74 1888.18 2259.83 1888.18 2261.96 1888.18 2263.68 1886.47 2263.68 1884.37L2263.68 1559.65 2308.19 1559.65 2352.6 1883.99C2352.89 1885.9 2354.51 1887.29 2356.41 1887.29 2356.57 1887.29 2356.76 1887.29 2356.92 1887.26 2359.01 1886.97 2360.48 1885.04 2360.19 1882.94L2315.93 1559.65 2529.5 1559.65C2550.71 1559.65 2570.36 1552.92 2586.36 1541.4L2671.03 1883.4C2671.47 1885.13 2673.03 1886.28 2674.74 1886.28 2675.05 1886.28 2675.37 1886.24 2675.68 1886.16 2677.73 1885.64 2678.97 1883.56 2678.45 1881.51L2592.95 1536.21C2594.09 1535.26 2595.22 1534.25 2596.3 1533.21L2630.29 1531.21 2740.88 1882.7C2741.39 1884.34 2742.9 1885.38 2744.52 1885.38 2744.9 1885.38 2745.29 1885.32 2745.67 1885.2 2747.69 1884.57 2748.81 1882.42 2748.17 1880.41ZM2622.87 1510.67C2623.16 1510.51 2623.41 1510.32 2623.67 1510.16L2623.67 1510.16 2624.48 1512.75 2622.87 1510.67Z" fill="#E6E6E6" transform="matrix(1.00007 0 0 1 737.852 280)"/><path d="M589.485 1287.7 663.525 1240.61 693.627 1258.77 589.485 1378.43 589.485 1287.7Z" fill="#FFB6B6" transform="matrix(1.00007 0 0 1 737.852 280)"/><path d="M488.235 1105.45C488.235 1105.45 439.057 1117.02 462.2 1183.55 485.342 1250.09 560.556 1388.95 583.699 1380.27 606.842 1371.59 609.734 1284.8 609.734 1284.8 609.734 1284.8 606.842 1287.7 595.27 1276.13 583.699 1264.55 583.699 1269.84 583.699 1257.07 583.699 1244.3 574.235 1234.84 574.235 1234.84L563.449 1212.48C563.449 1212.48 563.449 1108.34 520.057 1102.55 476.664 1096.77 488.235 1105.45 488.235 1105.45Z" fill="#E6E6E6" transform="matrix(1.00007 0 0 1 737.852 280)"/><path d="M1469.2 1479.4C1481.06 1491.27 1475.11 1516.45 1455.9 1535.66 1436.69 1554.86 1411.51 1560.82 1399.65 1548.95 1387.78 1537.09 1393.74 1511.91 1412.94 1492.7 1432.15 1473.5 1457.34 1467.54 1469.2 1479.4Z" fill="#FFB6B6"/><path d="M296.685 1488.75 347.207 1572.37 641.629 1554.95 563.232 1453.91 296.685 1488.75Z" fill="#E6E6E6" transform="matrix(1.00007 0 0 1 737.852 280)"/><path d="M384.659 1879.86C382.944 1879.86 381.45 1878.59 381.211 1876.85L293.233 1234.31C292.972 1232.4 294.306 1230.64 296.212 1230.38 298.118 1230.11 299.875 1231.45 300.137 1233.36L388.115 1875.9C388.376 1877.81 387.042 1879.57 385.136 1879.83 384.975 1879.85 384.816 1879.86 384.659 1879.86Z" fill="#E6E6E6" transform="matrix(1.00007 0 0 1 737.852 280)"/><path d="M296.685 1880.68C294.761 1880.68 293.201 1879.12 293.201 1877.19L293.201 1233.96C293.201 1232.03 294.761 1230.47 296.685 1230.47 298.609 1230.47 300.169 1232.03 300.169 1233.96L300.169 1877.19C300.169 1879.12 298.609 1880.68 296.685 1880.68Z" fill="#E6E6E6" transform="matrix(1.00007 0 0 1 737.852 280)"/><path d="M738.317 1878.12C736.836 1878.12 735.462 1877.17 734.994 1875.68L526.808 1213.98C526.231 1212.14 527.251 1210.18 529.086 1209.6 530.921 1209.03 532.879 1210.05 533.455 1211.88L741.641 1873.59C742.219 1875.42 741.199 1877.38 739.363 1877.96 739.015 1878.07 738.663 1878.12 738.317 1878.12Z" fill="#E6E6E6" transform="matrix(1.00007 0 0 1 737.852 280)"/><path d="M674.727 1878.93C673.171 1878.93 671.754 1877.89 671.352 1876.31L526.755 1292.31C526.281 1290.44 527.408 1288.55 529.273 1288.07 531.143 1287.6 533.034 1288.73 533.509 1290.59L678.107 1874.59C678.58 1876.46 677.453 1878.35 675.589 1878.83 675.3 1878.9 675.011 1878.93 674.727 1878.93Z" fill="#E6E6E6" transform="matrix(1.00007 0 0 1 737.852 280)"/><path d="M296.685 1244.21 537.971 1240.5 582.396 1493.98 300.169 1493.98 296.685 1244.21Z" fill="#E6E6E6" transform="matrix(1.00007 0 0 1 737.852 280)"/><path d="M667.482 1616.93 606.674 1723.99 677.277 1739.53 706.713 1663.39 667.482 1616.93Z" fill="#FFB6B6" transform="matrix(1.00007 0 0 1 737.852 280)"/><path d="M628.515 1703.78C628.515 1703.78 626.152 1686.32 612.26 1691.86 598.369 1697.4 558.278 1717.99 558.278 1717.99 558.278 1717.99 662.845 1887.9 682.69 1879.98 702.535 1872.07 678.779 1824.04 678.779 1824.04L684.022 1739.14 628.514 1703.78Z" fill="#2F2E41" transform="matrix(1.00007 0 0 1 737.852 280)"/><path d="M398.557 1409.2C398.557 1409.2 376.861 1509 443.396 1543.71 509.932 1578.43 737.019 1493.09 737.019 1493.09L632.877 1649.13 705.198 1678.23C705.198 1678.23 870.09 1461.27 858.519 1426.55 846.947 1391.84 768.841 1388.95 768.841 1388.95L592.377 1397.62 546.092 1383.16 398.557 1409.2Z" fill="#2F2E41" transform="matrix(1.00007 0 0 1 737.852 280)"/><path d="M577.522 1664.45 481.925 1742.04 542.032 1782.21 597.157 1722 577.522 1664.45Z" fill="#FFB6B6" transform="matrix(1.00007 0 0 1 737.852 280)"/><path d="M509.623 1731.16C509.623 1731.16 513.776 1714.04 498.821 1714.14 483.865 1714.25 439.03 1718.84 439.03 1718.84 439.03 1718.84 474.602 1915.15 495.967 1915 517.331 1914.85 512.681 1861.47 512.681 1861.47L548.457 1784.3 509.623 1731.16Z" fill="#2F2E41" transform="matrix(1.00007 0 0 1 737.852 280)"/><path d="M402.625 1373.09C402.625 1373.09 346.099 1458.16 395.441 1514.71 444.783 1571.25 687.357 1574.4 687.357 1574.4L533.573 1681.85 590.347 1735.27C590.347 1735.27 822.884 1593.18 824.737 1556.63 826.591 1520.09 754.892 1488.97 754.892 1488.97L587.368 1432.84 549.519 1402.53 402.625 1373.09Z" fill="#2F2E41" transform="matrix(1.00007 0 0 1 737.852 280)"/><path d="M547.835 1176.06C547.835 1176.06 492.871 1155.81 466.835 1155.81 464.347 1155.81 461.888 1156.1 459.429 1156.62 442.767 1160.15 427.435 1174.47 420.087 1182.28 417.223 1185.35 415.574 1187.4 415.574 1187.4 415.574 1187.4 415.748 1185.41 416.095 1181.91 417.801 1163.51 424.108 1103.13 435.419 1064.49 439.469 1050.69 444.126 1039.66 449.478 1034.31 461.946 1021.82 467.703 1006.83 470.364 995.665 472.621 986.089 472.621 979.349 472.621 979.349L451.532 970.265 447.627 944.751C446.932 947.759 443.721 953.632 432.931 964.885 432.005 965.839 430.993 966.649 429.922 967.344 414.359 977.121 382.625 960.112 365.528 949.408 372.644 924.674 385.546 902.052 408.978 898.349 463.942 889.671 463.942 857.85 498.656 892.564 501.52 895.428 504.413 898.176 507.306 900.837 518.414 922.071 522.464 950.536 523.911 970.323 524.952 984.18 524.692 993.813 524.692 993.813 524.692 993.813 539.156 1080.6 562.299 1097.96 585.441 1115.31 547.835 1176.06 547.835 1176.06Z" fill="#2F2E41" transform="matrix(1.00007 0 0 1 737.852 280)"/><path d="M440.799 1037.21 401.712 1094.54 489.978 1118.21 489.978 1037.21 440.799 1037.21Z" fill="#FFB6B6" transform="matrix(1.00007 0 0 1 737.852 280)"/><path d="M440.799 1037.21 401.712 1094.54 489.978 1118.21 489.978 1037.21 440.799 1037.21Z" fill="#000000" fill-opacity="0.1" transform="matrix(1.00007 0 0 1 737.852 280)"/><path d="M495.467 1092.43 411.575 1057.72C411.575 1057.72 298.754 1106.89 307.433 1202.36 316.111 1297.82 397.111 1462.71 397.111 1462.71L559.11 1393.29 541.753 1208.14 495.467 1092.43Z" fill="#E6E6E6" transform="matrix(1.00007 0 0 1 737.852 280)"/><path d="M533.511 988.79C533.511 1029.67 500.374 1062.8 459.498 1062.8 418.621 1062.8 385.484 1029.67 385.484 988.79 385.484 947.913 418.621 914.776 459.498 914.776 500.374 914.776 533.511 947.913 533.511 988.79Z" fill="#FFB6B6" transform="matrix(1.00007 0 0 1 737.852 280)"/><path d="M559.406 961.992C544.942 976.456 533.37 990.92 533.37 990.92L527.585 967.778C527.585 967.778 526.254 968.761 523.911 970.323 514.74 976.572 490.122 992.28 470.364 995.665 461.57 997.169 453.759 996.214 448.668 990.92 437.878 979.667 434.667 973.795 433.972 970.786L430.067 996.301 408.978 1005.38C408.978 1005.38 408.978 1037.15 432.121 1060.35 433.249 1061.48 434.349 1062.87 435.419 1064.49 446.47 1081.15 454.396 1121.94 459.429 1156.62 463.884 1187.46 466.025 1213.44 466.025 1213.44 466.025 1213.44 444.126 1186.01 420.087 1182.28 418.756 1182.08 417.425 1181.93 416.095 1181.91 415.661 1181.85 415.198 1181.85 414.764 1181.85 388.728 1181.85 333.764 1202.1 333.764 1202.1 333.764 1202.1 296.158 1141.35 319.3 1123.99 342.443 1106.63 356.907 1019.85 356.907 1019.85 356.907 1019.85 355.952 982.705 365.528 949.408 372.644 924.674 385.546 902.052 408.978 898.349 463.942 889.671 463.942 857.85 498.656 892.564 501.52 895.428 504.413 898.176 507.306 900.837 539.648 930.576 572.684 948.714 559.406 961.992Z" fill="#2F2E41" transform="matrix(1.00007 0 0 1 737.852 280)"/><path d="M207.303 1350.32 234.79 1350.32 234.79 1893.19 207.303 1893.19Z" fill="#3F3D56" transform="matrix(1.00007 0 0 1 737.852 280)"/><path d="M873.871 1350.32 901.359 1350.32 901.359 1893.19 873.871 1893.19Z" fill="#3F3D56" transform="matrix(1.00007 0 0 1 737.852 280)"/><path d="M544.023 1120.11 726.127 1120.11 726.127 1302.21 544.023 1302.21Z" fill="#FF0000" transform="matrix(1.00007 0 0 1 737.852 280)"/><path d="M439.057 1313.73 513.098 1266.65 543.199 1284.8 439.057 1404.47 439.057 1313.73Z" fill="#FFB6B6" transform="matrix(1.00007 0 0 1 737.852 280)"/><path d="M337.808 1131.48C337.808 1131.48 288.629 1143.05 311.772 1209.59 334.915 1276.13 410.129 1414.98 433.271 1406.3 456.414 1397.62 459.307 1310.84 459.307 1310.84 459.307 1310.84 456.414 1313.73 444.843 1302.16 433.271 1290.59 433.271 1295.87 433.271 1283.11 433.271 1270.34 423.807 1260.88 423.807 1260.88L413.021 1238.52C413.021 1238.52 413.021 1134.38 369.629 1128.59 326.236 1122.8 337.808 1131.48 337.808 1131.48Z" fill="#E6E6E6" transform="matrix(1.00007 0 0 1 737.852 280)"/><path d="M1318.76 1505.44C1330.62 1517.3 1324.67 1542.49 1305.46 1561.69 1286.26 1580.9 1261.07 1586.85 1249.21 1574.99 1237.34 1563.13 1243.3 1537.94 1262.5 1518.74 1281.71 1499.53 1306.9 1493.58 1318.76 1505.44Z" fill="#FFB6B6"/><path d="M124.84 1329.7 956.333 1329.7 956.333 1391.55 124.84 1391.55Z" fill="#3F3D56" transform="matrix(1.00007 0 0 1 737.852 280)"/><path d="M1801.12 834.929C1810.86 834.929 1818.75 842.82 1818.75 852.555L1818.75 903.201C1818.75 912.935 1810.86 920.827 1801.12 920.827L1678.32 920.827C1668.59 920.827 1660.7 912.935 1660.7 903.201L1660.7 852.555C1660.7 842.82 1668.59 834.929 1678.32 834.929Z" fill="#3F3D56" transform="matrix(1.00007 0 0 1 737.852 280)"/><path d="M2058.82 885.575C2068.55 885.575 2076.44 893.466 2076.44 903.201L2076.44 903.201C2076.44 912.935 2068.55 920.827 2058.82 920.827L1936.02 920.827C1926.28 920.827 1918.39 912.935 1918.39 903.201L1918.39 903.201C1918.39 893.466 1926.28 885.575 1936.02 885.575Z" fill="#FF0000" transform="matrix(1.00007 0 0 1 737.852 280)"/></g></svg>